<svg width="157" height="46" viewBox="0 0 157 46" fill="none" xmlns="http://www.w3.org/2000/svg">
<path d="M23.4866 31L20.6866 21H22.3666L24.6466 29.66H25.4066L27.7666 21H29.3666L26.5666 31H23.4866ZM33.9774 31.2C33.0574 31.2 32.3574 30.94 31.8774 30.42C31.3974 29.9 31.1574 29.14 31.1574 28.14C31.1574 27.4867 31.2708 26.9533 31.4974 26.54C31.7241 26.1267 32.0641 25.8133 32.5174 25.6C32.9841 25.3733 33.5574 25.2333 34.2374 25.18L37.3174 24.88V24.02C37.3174 23.34 37.1641 22.86 36.8574 22.58C36.5641 22.3 36.1241 22.16 35.5374 22.16C35.2041 22.16 34.8041 22.1733 34.3374 22.2C33.8841 22.2267 33.4308 22.26 32.9774 22.3C32.5241 22.34 32.1241 22.38 31.7774 22.42L31.6974 21.24C32.0174 21.1733 32.4041 21.1067 32.8574 21.04C33.3108 20.9733 33.7841 20.92 34.2774 20.88C34.7708 20.8267 35.2241 20.8 35.6374 20.8C36.3974 20.8 37.0174 20.92 37.4974 21.16C37.9774 21.3867 38.3241 21.74 38.5374 22.22C38.7641 22.6867 38.8774 23.2867 38.8774 24.02V29.08C38.9041 29.3733 39.0174 29.5867 39.2174 29.72C39.4308 29.8533 39.6974 29.94 40.0174 29.98L39.9574 31.2C39.7708 31.2 39.5908 31.1933 39.4174 31.18C39.2441 31.1667 39.0774 31.14 38.9174 31.1C38.7708 31.0733 38.6241 31.04 38.4774 31C38.3041 30.9333 38.1374 30.8533 37.9774 30.76C37.8308 30.6667 37.6841 30.5533 37.5374 30.42C37.2841 30.5267 36.9574 30.64 36.5574 30.76C36.1708 30.88 35.7508 30.98 35.2974 31.06C34.8574 31.1533 34.4174 31.2 33.9774 31.2ZM34.2374 29.9C34.5974 29.9 34.9708 29.8667 35.3574 29.8C35.7441 29.7333 36.1108 29.6533 36.4574 29.56C36.8041 29.4667 37.0908 29.38 37.3174 29.3V26.04L34.4174 26.32C33.8174 26.3733 33.3841 26.5467 33.1174 26.84C32.8641 27.1333 32.7374 27.5533 32.7374 28.1C32.7374 28.66 32.8641 29.1 33.1174 29.42C33.3708 29.74 33.7441 29.9 34.2374 29.9ZM42.5565 31V16.66H44.0965V31H42.5565ZM47.6045 26.22V24.78H53.6645V26.22H47.6045ZM60.1754 31.2C59.7754 31.2 59.3954 31.1533 59.0354 31.06C58.6754 30.98 58.3421 30.8333 58.0354 30.62C57.7421 30.4067 57.4821 30.1133 57.2554 29.74C57.0287 29.3533 56.8554 28.86 56.7354 28.26C56.6154 27.66 56.5554 26.9333 56.5554 26.08C56.5554 24.8933 56.6954 23.9133 56.9754 23.14C57.2554 22.3533 57.7021 21.7667 58.3154 21.38C58.9287 20.9933 59.7421 20.8 60.7554 20.8C61.0087 20.8 61.2887 20.8133 61.5954 20.84C61.9021 20.8667 62.1954 20.9 62.4754 20.94C62.7687 20.98 63.0021 21.02 63.1754 21.06V16.66H64.7354V31H63.1954V30.34C62.9821 30.46 62.7021 30.5867 62.3554 30.72C62.0221 30.8533 61.6621 30.9667 61.2754 31.06C60.9021 31.1533 60.5354 31.2 60.1754 31.2ZM60.3754 29.8C60.7221 29.8 61.0687 29.76 61.4154 29.68C61.7754 29.6 62.1087 29.5067 62.4154 29.4C62.7221 29.28 62.9754 29.1733 63.1754 29.08V22.38C63.0154 22.3533 62.7954 22.3267 62.5154 22.3C62.2354 22.26 61.9421 22.2267 61.6354 22.2C61.3421 22.1733 61.0754 22.16 60.8354 22.16C60.1554 22.16 59.6221 22.3067 59.2354 22.6C58.8487 22.8933 58.5687 23.3333 58.3954 23.92C58.2354 24.4933 58.1554 25.2133 58.1554 26.08C58.1554 26.88 58.2154 27.5267 58.3354 28.02C58.4554 28.5 58.6154 28.8733 58.8154 29.14C59.0287 29.3933 59.2687 29.5667 59.5354 29.66C59.8021 29.7533 60.0821 29.8 60.3754 29.8ZM71.7609 31.2C70.7609 31.2 69.9675 31.0067 69.3809 30.62C68.8075 30.2333 68.3942 29.66 68.1409 28.9C67.8875 28.14 67.7609 27.1933 67.7609 26.06C67.7609 24.7933 67.9342 23.78 68.2809 23.02C68.6275 22.2467 69.1142 21.6867 69.7409 21.34C70.3675 20.98 71.1075 20.8 71.9609 20.8C73.2942 20.8 74.3009 21.1733 74.9809 21.92C75.6609 22.6533 76.0009 23.84 76.0009 25.48L75.9209 26.66H69.3409C69.3542 27.7 69.5475 28.4867 69.9209 29.02C70.2942 29.5533 70.9675 29.82 71.9409 29.82C72.3142 29.82 72.7209 29.8133 73.1609 29.8C73.6142 29.7733 74.0609 29.7467 74.5009 29.72C74.9409 29.6933 75.3142 29.6667 75.6209 29.64L75.6609 30.86C75.3409 30.9133 74.9475 30.9667 74.4809 31.02C74.0275 31.0733 73.5609 31.1133 73.0809 31.14C72.6009 31.18 72.1609 31.2 71.7609 31.2ZM69.3409 25.4H74.4409C74.4409 24.1733 74.2409 23.32 73.8409 22.84C73.4542 22.3467 72.8275 22.1 71.9609 22.1C71.4009 22.1 70.9275 22.2133 70.5409 22.44C70.1542 22.6533 69.8542 23 69.6409 23.48C69.4409 23.96 69.3409 24.6 69.3409 25.4ZM78.9185 31V21H80.4585V21.7C80.6852 21.5667 80.9652 21.4333 81.2985 21.3C81.6452 21.1667 82.0118 21.0533 82.3985 20.96C82.7852 20.8533 83.1585 20.8 83.5185 20.8C84.2118 20.8 84.7785 20.8933 85.2185 21.08C85.6585 21.2533 85.9985 21.54 86.2385 21.94C86.4918 22.3267 86.6652 22.8333 86.7585 23.46C86.8652 24.0733 86.9185 24.82 86.9185 25.7V31H85.3585V25.76C85.3585 24.8933 85.3052 24.2 85.1985 23.68C85.1052 23.16 84.9052 22.7867 84.5985 22.56C84.3052 22.32 83.8518 22.2 83.2385 22.2C82.9052 22.2 82.5585 22.24 82.1985 22.32C81.8518 22.3867 81.5252 22.48 81.2185 22.6C80.9118 22.7067 80.6585 22.8133 80.4585 22.92V31H78.9185ZM93.5016 31.22C92.8083 31.22 92.255 31.1133 91.8416 30.9C91.4416 30.6867 91.155 30.32 90.9816 29.8C90.8083 29.2667 90.7216 28.52 90.7216 27.56V22.34H89.3016V21H90.7216V17.94H92.2616V21H95.4016V22.34H92.2616V27.1C92.2616 27.8067 92.2883 28.36 92.3416 28.76C92.4083 29.1467 92.5416 29.42 92.7416 29.58C92.9416 29.74 93.255 29.82 93.6816 29.82C93.815 29.82 93.9883 29.8133 94.2016 29.8C94.415 29.7867 94.6283 29.7733 94.8416 29.76C95.0683 29.7333 95.2683 29.7133 95.4416 29.7L95.5416 31C95.355 31.0267 95.135 31.0533 94.8816 31.08C94.6283 31.12 94.375 31.1533 94.1216 31.18C93.8816 31.2067 93.675 31.22 93.5016 31.22Z" fill="black"/>
<path fill-rule="evenodd" clip-rule="evenodd" d="M146.658 4.89365C135.005 6.95732 126.325 -3.12744 118.536 2.82997C113.57 6.62358 116.577 20.9803 121.715 24.4179C118.375 20.5019 116.031 9.12669 120.919 4.89365C124.816 1.51722 136.965 10.1335 146.658 4.89365Z" fill="#2C9CDB"/>
<path fill-rule="evenodd" clip-rule="evenodd" d="M137.761 2.98539C147.493 -2.22109 155.655 -0.986215 156.384 9.62142C157.264 22.4485 148.284 38.83 141.096 44.2589C142.622 34.5413 139.52 27.5159 131.247 23.6222C141.441 25.5245 144.036 31.2428 143.958 37.9066C148.534 31.2149 154.525 17.9151 153.434 8.59793C152.521 0.816027 143.713 1.93964 137.761 2.98539Z" fill="#2C9CDB"/>
<path fill-rule="evenodd" clip-rule="evenodd" d="M132.862 26.5422C131.264 27.1652 128.914 27.5546 126.27 27.5546C121.354 27.5546 117.289 26.1973 117.2 24.523C117.172 24.0447 117.473 23.5941 118.024 23.1936C117.93 23.3605 117.885 23.5274 117.896 23.7054C117.991 25.3797 122.952 26.7369 128.981 26.7369C130.356 26.7369 131.659 26.6702 132.862 26.5422Z" fill="#2C9CDB"/>
<path fill-rule="evenodd" clip-rule="evenodd" d="M131.587 30.3193C130.2 30.8422 128.157 31.176 125.858 31.176C121.582 31.176 118.057 30.0245 117.979 28.6117C117.957 28.2056 118.213 27.8273 118.698 27.488C118.614 27.6271 118.575 27.7717 118.586 27.9219C118.664 29.3348 122.974 30.4862 128.218 30.4862C129.41 30.4862 130.545 30.425 131.587 30.3193Z" fill="#2C9CDB"/>
<path fill-rule="evenodd" clip-rule="evenodd" d="M131.119 33.5621C129.922 34.0627 128.163 34.4243 126.186 34.5022C122.506 34.6524 119.466 33.7846 119.399 32.5609C119.383 32.216 119.605 31.8767 120.017 31.5652C119.951 31.6876 119.917 31.8155 119.923 31.9434C119.99 33.1672 123.703 34.0071 128.218 33.8236C129.243 33.7791 130.223 33.6901 131.119 33.5621Z" fill="#2C9CDB"/>
<path fill-rule="evenodd" clip-rule="evenodd" d="M130.735 36.3603C129.71 36.8442 128.202 37.2169 126.503 37.3615C123.347 37.6341 120.741 36.9999 120.685 35.9486C120.669 35.6483 120.858 35.3479 121.214 35.0642C121.153 35.1755 121.125 35.2867 121.131 35.3924C121.192 36.4437 124.377 37.0278 128.246 36.6996C129.126 36.6273 129.966 36.5105 130.735 36.3603Z" fill="#2C9CDB"/>
<path fill-rule="evenodd" clip-rule="evenodd" d="M130.885 39.2414C130.017 39.6975 128.742 40.0924 127.311 40.2927C124.638 40.6709 122.439 40.2593 122.389 39.3638C122.378 39.1134 122.539 38.8465 122.84 38.5906C122.784 38.6851 122.762 38.7797 122.768 38.8743C122.818 39.7643 125.507 40.1091 128.781 39.6474C129.527 39.5418 130.234 39.4027 130.885 39.2414Z" fill="#2C9CDB"/>
<path fill-rule="evenodd" clip-rule="evenodd" d="M130.874 42.1618C130.167 42.54 129.12 42.8627 127.94 43.0295C125.752 43.3466 123.948 43.0073 123.903 42.273C123.892 42.0672 124.026 41.8503 124.271 41.6389C124.232 41.7168 124.21 41.7947 124.215 41.8725C124.254 42.6012 126.464 42.8849 129.148 42.4955C129.76 42.4065 130.339 42.2953 130.874 42.1618Z" fill="#2C9CDB"/>
<mask id="mask0_53_274" style="mask-type:luminance" maskUnits="userSpaceOnUse" x="125" y="43" width="7" height="3">
<path d="M125.485 43.8306H131.186V45.9999H125.485V43.8306Z" fill="white"/>
</mask>
<g mask="url(#mask0_53_274)">
<path fill-rule="evenodd" clip-rule="evenodd" d="M130.384 44.298C129.894 44.6373 129.17 44.9488 128.357 45.149C126.843 45.5161 125.596 45.3437 125.562 44.7596C125.551 44.5928 125.64 44.4148 125.813 44.2312C125.785 44.298 125.768 44.3591 125.774 44.4203C125.807 45.0044 127.338 45.1101 129.192 44.6539C129.61 44.5538 130.016 44.4315 130.384 44.298Z" fill="#2C9CDB"/>
</g>
</svg>
