<svg width="365" height="580" viewBox="0 0 365 580" fill="none" xmlns="http://www.w3.org/2000/svg">
<mask id="mask0_326_2199" style="mask-type:luminance" maskUnits="userSpaceOnUse" x="58" y="0" width="307" height="443">
<path d="M58.605 0H364.722V442.281H58.605V0Z" fill="white"/>
</mask>
<g mask="url(#mask0_326_2199)">
<path fill-rule="evenodd" clip-rule="evenodd" d="M68.1436 62.9696L68.5881 64.3034C70.3665 66.0413 73.1148 66.9305 76.0653 67.3347C80.3494 67.8601 85.159 67.4155 88.352 67.0517C96.3141 66.203 104.397 64.9097 112.4 63.2121C120.403 61.4742 128.324 59.3725 136.003 56.9071C167.731 46.6008 215.746 21.2999 259.234 14.8736C288.052 10.5894 314.888 14.6311 332.753 39.2045C340.513 49.8342 345.039 62.2421 347.666 75.3372C351.708 95.4648 351.142 117.088 349.687 136.367C348.111 158.798 345.241 181.593 341.159 204.307C338.492 219.262 335.299 234.135 331.54 248.887C322.082 286.03 308.987 322.203 291.244 355.062C283.606 369.329 265.58 396.247 245.008 413.667C231.185 425.387 216.352 433.107 202.812 427.893C195.093 424.902 190.768 418.314 188.141 410.554C183.978 398.066 184.18 382.586 184.059 371.754C183.776 350.737 186.403 317.555 183.453 287.687C181.392 266.711 176.582 247.351 166.235 234.943C175.976 247.675 179.896 266.994 181.149 287.889C182.887 317.798 179.088 350.737 178.562 371.714C178.279 383.111 177.552 399.359 181.472 412.656C184.463 422.72 190.081 431.086 199.822 435.209C215.786 441.999 234.176 434.602 251.111 421.103C273.34 403.441 293.144 375.594 301.591 360.842C320.506 327.377 335.016 290.557 345.241 252.484C349.323 237.449 352.678 222.172 355.386 206.854C359.508 183.573 362.095 160.213 363.469 137.256C364.601 116.805 364.763 93.8885 359.993 72.7101C356.679 57.9579 351.021 44.0546 341.927 32.2933C320.749 5.05231 290.396 0.283138 257.82 6.34566C214.089 14.4694 166.559 42.1146 134.953 53.8354C127.475 56.6242 119.756 59.0492 111.915 61.1105C104.034 63.1717 96.112 64.8288 88.1903 66.0413C85.0782 66.5263 80.3899 67.2134 76.1057 66.8497C73.1957 66.6072 70.4877 65.8797 68.6286 64.2226L68.1436 62.9696Z" fill="white" fill-opacity="0.15"/>
</g>
<mask id="mask1_326_2199" style="mask-type:luminance" maskUnits="userSpaceOnUse" x="0" y="31" width="204" height="394">
<path d="M0 31.04H203.458V424.215H0V31.04Z" fill="white"/>
</mask>
<g mask="url(#mask1_326_2199)">
<path fill-rule="evenodd" clip-rule="evenodd" d="M91.2612 389.456C90.4529 388.001 89.6041 386.506 88.7554 384.97C80.7932 370.662 73.5182 353.889 69.6382 346.17C61.3527 330.084 53.4715 313.028 46.156 295.406C35.5668 269.863 26.4326 243.107 20.4105 215.987C13.5801 185.27 10.5084 154.19 13.9842 123.958C15.4796 110.095 19.0363 95.6662 24.8968 82.3691C30.7976 68.9911 39.0022 56.8256 49.9956 47.6106C55.6136 42.8818 63.8586 37.951 71.7803 36.981C77.277 36.3343 82.5716 37.5872 86.8153 42.0331C82.7737 37.183 77.3578 35.6068 71.6995 35.9301C63.3736 36.3747 54.5223 40.9418 48.3385 45.5089C36.3347 54.4006 26.9984 66.5257 20.0872 80.0653C13.1355 93.6049 8.60879 108.478 6.22419 122.867C0.0404224 161.586 3.71834 202.286 13.5801 241.813C18.4301 261.173 24.7351 280.25 32.0505 298.64C39.5681 317.514 48.2173 335.621 57.109 352.717C61.8782 361.569 71.5378 382.585 81.3995 397.863C86.9366 406.431 92.7162 413.262 97.6875 416.131C100.355 417.667 102.537 417.222 104.195 416.172C105.367 415.444 107.226 413.827 107.347 410.635C107.468 407.967 105.488 399.924 105.326 399.237L100.395 379.958C98.3342 370.541 96.96 361.124 96.3941 351.666C95.8283 342.209 96.0304 332.711 97.2025 323.132C100.436 295.649 110.863 271.803 127.475 254.221C144.409 236.236 167.73 224.758 196.385 222.494C167.002 223.181 142.671 233.73 124.363 251.109C105.973 268.691 93.8479 293.224 88.917 321.96C87.2195 332.024 86.5324 342.007 86.6941 352.03C86.8558 362.054 87.947 372.036 89.7254 382.06L91.2612 389.456Z" fill="white" fill-opacity="0.15"/>
</g>
<g filter="url(#filter0_f_326_2199)">
<ellipse cx="180.5" cy="570" rx="145.5" ry="6" fill="#090909" fill-opacity="0.12"/>
</g>
<mask id="mask2_326_2199" style="mask-type:luminance" maskUnits="userSpaceOnUse" x="46" y="81" width="101" height="128">
<path d="M46 81.5474H146.676V208.936H46V81.5474Z" fill="white"/>
</mask>
<g mask="url(#mask2_326_2199)">
<path d="M127.789 204.526L53.1469 198.441C49.0529 198.102 45.9994 194.506 46.316 190.389L54.3005 91.5675C54.6397 87.4509 58.2361 84.3748 62.3301 84.7141L136.972 90.7759C141.089 91.1152 144.142 94.7342 143.803 98.8508L135.819 197.672C135.479 201.789 131.883 204.865 127.789 204.526Z" fill="#A2A4A3"/>
</g>
<path d="M124.668 198.237L57.2413 192.741C53.3283 192.424 50.3879 188.964 50.7045 185.028L57.7842 97.561C58.1009 93.6027 61.5389 90.6849 65.4746 91.0015L132.879 96.4753C136.814 96.792 139.732 100.253 139.415 104.211L132.358 191.678C132.042 195.613 128.604 198.554 124.668 198.237Z" fill="#7D7E80"/>
<path d="M121.139 192.809L61.5835 187.969C58.7109 187.742 56.5621 185.209 56.7883 182.314L63.3704 101.045C63.5966 98.1494 66.1299 96.0006 69.0025 96.2268L128.558 101.067C131.43 101.316 133.579 103.849 133.353 106.745L126.793 188.014C126.545 190.909 124.034 193.058 121.139 192.809Z" fill="#B4AC79"/>
<path d="M95.8517 136.488C103.271 143.297 117.882 142.844 125.935 133.865C126.568 130.788 126.274 127.486 125.12 124.546C122.768 118.529 119.172 117.127 119.172 117.127C117.023 115.837 114.512 115.091 112.024 114.933C109.875 114.797 107.681 115.091 105.668 115.883C103.565 116.697 101.597 118.936 99.2219 118.755C97.7065 118.619 96.666 117.534 95.6934 116.516C94.7208 115.498 93.522 114.684 92.2101 114.096C91.1922 118.8 89.428 130.607 95.8517 136.488Z" fill="white"/>
<path d="M95.8518 136.488C89.428 130.607 91.1923 118.8 92.2101 114.096C91.3054 113.689 90.3328 113.372 89.3149 113.191C87.6185 116.222 83.9543 124.319 86.3745 133.638C89.4506 145.513 103.384 149.652 110.758 148.16C113.065 147.707 118.29 146.169 121.999 141.623C122.497 140.854 123.04 140.085 123.582 139.316C123.718 139.135 123.831 138.954 123.967 138.773C124.713 137.438 125.369 135.945 125.844 134.294C125.867 134.159 125.912 134 125.935 133.864C117.882 142.844 103.271 143.297 95.8518 136.488Z" fill="#EDF0F7"/>
<path d="M106.799 117.059C105.668 117.375 104.673 117.579 102.796 119.456C100.67 121.582 98.0459 121.334 96.4852 119.863C92.6626 116.267 91.396 116.629 91.396 116.629C91.396 116.629 93.3412 118.665 94.246 120.112C95.1507 121.582 96.8924 124.862 101.733 123.663C105.035 122.826 105.261 119.818 107.772 118.144C108.812 117.466 109.966 116.878 109.966 116.878C109.966 116.878 108.36 116.606 106.799 117.059Z" fill="#C6D2E9"/>
<path d="M110.622 148.069C102.411 149.132 89.4507 145.513 86.3745 133.638C83.9543 124.319 87.6186 116.222 89.315 113.191C85.5829 112.444 81.3532 113.1 77.9151 115.045C76.6485 118.981 74.7259 126.219 76.083 131.15C78.0282 138.207 80.4032 142.459 81.421 150.218C82.4389 157.976 83.1853 163.133 86.0579 162.59C88.7043 162.07 88.7043 157.049 90.1745 155.624C90.4685 154.877 90.8531 154.176 91.4638 153.656C91.7352 153.43 92.0519 153.203 92.3911 153.045C93.5899 151.507 95.9649 149.562 99.7196 150.467C105.555 151.892 105.849 156.596 105.352 160.147C104.831 163.676 107.071 165.779 108.496 166.096C109.808 166.39 110.893 165.825 111.798 164.897C114.173 160.26 115.621 151.394 121.999 141.623C118.29 146.169 112.952 147.775 110.622 148.069Z" fill="#D9E0F0"/>
<path d="M108.495 166.096C107.07 165.779 104.831 163.676 105.351 160.147C105.849 156.596 105.555 151.891 99.7191 150.466C95.9644 149.562 93.612 151.507 92.3906 153.045C93.5216 152.412 94.9239 152.208 96.1906 152.299C97.7513 152.434 99.3798 152.977 100.488 154.131C101.777 155.443 101.732 156.958 101.823 158.632C101.913 160.193 101.845 162.138 102.23 163.653C102.954 166.481 104.921 168.991 108.246 168.245C109.807 167.906 110.87 166.729 111.798 164.897C110.893 165.825 109.807 166.39 108.495 166.096Z" fill="#C6D2E9"/>
<path d="M86.057 162.59C83.1844 163.133 82.438 157.976 81.4202 150.218C80.4249 142.459 78.0274 138.207 76.0821 131.15C74.725 126.219 76.6476 118.981 77.9143 115.045C76.0821 116.086 74.4988 117.511 73.3226 119.275C70.3596 123.799 69.3644 130.155 71.8524 135.108C79.95 151.168 76.3536 164.603 82.5964 166.345C85.5594 167.159 87.4594 164.852 88.4772 162.364C89.0653 160.962 89.382 159.559 89.6082 158.066C89.7439 157.275 89.9022 156.415 90.1963 155.624C88.7034 157.071 88.7034 162.092 86.057 162.59Z" fill="#C6D2E9"/>
<path d="M106.211 147.956L110.757 152.842L120.483 153.633" stroke="#3E5B20" stroke-width="0.0258528" stroke-miterlimit="10" stroke-linecap="round" stroke-linejoin="round"/>
<path d="M83.683 140.492L78.4129 144.563L73.6177 144.269" stroke="#3E5B20" stroke-width="0.0258528" stroke-miterlimit="10" stroke-linecap="round" stroke-linejoin="round"/>
<path d="M111.753 123.482L117.023 119.411L123.221 119.908" stroke="#3E5B20" stroke-width="0.0258528" stroke-miterlimit="10" stroke-linecap="round" stroke-linejoin="round"/>
<path d="M88.3869 121.582L83.8406 116.697L75.9014 116.063" stroke="#3E5B20" stroke-width="0.0258528" stroke-miterlimit="10" stroke-linecap="round" stroke-linejoin="round"/>
<path d="M93.0691 123.708C93.0691 124.455 92.7977 125.111 92.2549 125.631C91.7346 126.174 91.1013 126.423 90.3549 126.423C89.6085 126.423 88.9751 126.174 88.4323 125.631C87.9121 125.111 87.6406 124.455 87.6406 123.708C87.6406 122.962 87.9121 122.329 88.4323 121.786C88.9751 121.266 89.6085 120.994 90.3549 120.994C91.1013 120.994 91.7346 121.266 92.2549 121.786C92.7977 122.329 93.0691 122.962 93.0691 123.708Z" stroke="#3E5B20" stroke-width="0.0258528" stroke-miterlimit="10" stroke-linecap="round" stroke-linejoin="round"/>
<path d="M88.6134 138.908C88.5003 140.401 87.1884 141.51 85.6956 141.396C84.2253 141.283 83.117 139.971 83.2301 138.479C83.3432 136.986 84.6551 135.855 86.1479 135.991C87.6408 136.104 88.7491 137.416 88.6134 138.908Z" stroke="#3E5B20" stroke-width="0.0258528" stroke-miterlimit="10" stroke-linecap="round" stroke-linejoin="round"/>
<path d="M107.161 146.078C107.048 147.571 105.736 148.679 104.243 148.544C102.75 148.431 101.642 147.119 101.777 145.626C101.89 144.133 103.202 143.025 104.673 143.138C106.165 143.274 107.274 144.563 107.161 146.078Z" stroke="#3E5B20" stroke-width="0.0258528" stroke-miterlimit="10" stroke-linecap="round" stroke-linejoin="round"/>
<path d="M112.002 125.246C112.002 126.016 111.73 126.649 111.21 127.169C110.69 127.712 110.034 127.961 109.287 127.961C108.541 127.961 107.908 127.712 107.387 127.169C106.867 126.649 106.596 126.016 106.596 125.246C106.596 124.5 106.867 123.867 107.387 123.347C107.908 122.804 108.541 122.532 109.287 122.532C110.034 122.532 110.69 122.804 111.21 123.347C111.73 123.867 112.002 124.5 112.002 125.246Z" stroke="#3E5B20" stroke-width="0.0258528" stroke-miterlimit="10" stroke-linecap="round" stroke-linejoin="round"/>
<path d="M121.343 154.877L121.637 151.077L129.214 151.688L128.897 155.488L121.343 154.877Z" fill="#3E5B20" fill-opacity="0.5"/>
<path d="M123.944 120.677L124.261 116.877L131.001 117.42L130.684 121.22L123.944 120.677Z" fill="#3E5B20" fill-opacity="0.5"/>
<path d="M67.1934 116.041L67.51 112.241L75.0647 112.851L74.7707 116.651L67.1934 116.041Z" fill="#3E5B20" fill-opacity="0.5"/>
<path d="M63.1899 146.305L63.5066 142.505L72.622 143.251L72.3053 147.051L63.1899 146.305Z" fill="#3E5B20" fill-opacity="0.5"/>
<path d="M63.5973 169.828L75.1102 170.756C75.5174 170.801 75.8793 170.439 75.9245 169.987C75.9697 169.512 75.6531 169.105 75.2459 169.082L63.733 168.132C63.3258 168.109 62.9639 168.449 62.9187 168.924C62.8961 169.399 63.1901 169.806 63.5973 169.828Z" fill="#3E5B20"/>
<path d="M78.6614 171.05L83.0494 171.412C83.4566 171.457 83.8185 171.095 83.8637 170.62C83.9089 170.168 83.5923 169.761 83.1851 169.716L78.7971 169.354C78.39 169.331 78.0281 169.67 77.9828 170.145C77.9376 170.62 78.2543 171.027 78.6614 171.05Z" fill="#3E5B20"/>
<path d="M62.4894 183.535L71.6952 184.282C72.125 184.327 72.4869 183.965 72.5321 183.513C72.5547 183.038 72.2607 182.631 71.8535 182.608L62.6251 181.839C62.2179 181.816 61.856 182.156 61.8108 182.631C61.7882 183.106 62.0822 183.513 62.4894 183.535Z" fill="#3E5B20"/>
<path d="M76.1954 184.666L81.9405 185.118C82.3477 185.164 82.7096 184.802 82.7548 184.349C82.8 183.874 82.4834 183.467 82.0762 183.422L76.3311 182.97C75.9013 182.924 75.5394 183.286 75.5168 183.739C75.4716 184.214 75.7656 184.621 76.1954 184.666Z" fill="#3E5B20"/>
<path d="M71.8084 175.098L82.6654 175.98C83.0951 176.026 83.457 175.664 83.5023 175.189C83.5249 174.736 83.2309 174.329 82.8237 174.284L71.9441 173.402C71.5143 173.379 71.1524 173.719 71.1072 174.194C71.0846 174.669 71.3786 175.076 71.8084 175.098Z" fill="#3E5B20"/>
<path d="M63.2356 174.397L68.2796 174.804C68.6867 174.85 69.0486 174.488 69.0939 174.035C69.1391 173.56 68.8225 173.153 68.4153 173.108L63.3713 172.701C62.9642 172.678 62.6023 173.017 62.557 173.492C62.5118 173.967 62.8285 174.375 63.2356 174.397Z" fill="#3E5B20"/>
<path d="M63.0764 178.989L74.6799 179.939C75.087 179.962 75.4489 179.622 75.4941 179.147C75.5168 178.672 75.2227 178.265 74.8156 178.243L63.2121 177.293C62.805 177.27 62.4431 177.609 62.3979 178.084C62.3526 178.559 62.6693 178.966 63.0764 178.989Z" fill="#3E5B20"/>
<path d="M78.9548 180.278L82.3024 180.549C82.7096 180.595 83.0941 180.233 83.1167 179.758C83.1619 179.305 82.8679 178.898 82.4381 178.853L79.0906 178.582C78.6834 178.559 78.3215 178.898 78.2763 179.373C78.231 179.848 78.5477 180.255 78.9548 180.278Z" fill="#3E5B20"/>
<path d="M123.401 175.347L114.987 174.669C114.67 174.646 114.422 174.352 114.444 174.036L114.49 173.606C114.512 173.267 114.806 173.018 115.123 173.063L123.537 173.741C123.854 173.764 124.103 174.058 124.08 174.375L124.035 174.805C124.012 175.144 123.718 175.393 123.401 175.347Z" fill="#FEFAE0" fill-opacity="0.4"/>
<path d="M113.268 173.719C113.2 174.533 112.499 175.121 111.685 175.076C110.87 175.008 110.282 174.284 110.35 173.47C110.418 172.678 111.119 172.068 111.933 172.136C112.725 172.203 113.336 172.905 113.268 173.719Z" fill="#3E5B20"/>
<path d="M114.761 177.451L125.075 178.288C125.392 178.311 125.641 178.605 125.618 178.944L125.573 179.374C125.55 179.69 125.256 179.939 124.94 179.917L114.648 179.08C114.309 179.034 114.06 178.763 114.082 178.424L114.128 177.994C114.15 177.677 114.444 177.429 114.761 177.451Z" fill="#FEFAE0" fill-opacity="0.4"/>
<path d="M112.906 178.107C112.839 178.921 112.137 179.532 111.323 179.464C110.531 179.396 109.921 178.695 109.989 177.881C110.056 177.067 110.758 176.456 111.572 176.524C112.386 176.592 112.974 177.315 112.906 178.107Z" fill="#3E5B20"/>
<path d="M122.655 184.621L114.241 183.942C113.924 183.92 113.675 183.626 113.698 183.287L113.743 182.857C113.766 182.54 114.06 182.291 114.376 182.314L122.79 183.015C123.107 183.038 123.356 183.332 123.333 183.648L123.288 184.078C123.265 184.395 122.971 184.644 122.655 184.621Z" fill="#FEFAE0" fill-opacity="0.4"/>
<path d="M112.522 182.993C112.454 183.784 111.753 184.395 110.938 184.327C110.124 184.259 109.536 183.558 109.604 182.744C109.672 181.93 110.373 181.341 111.187 181.387C111.979 181.455 112.59 182.178 112.522 182.993Z" fill="#3E5B20"/>
<path d="M114.015 186.725L119.285 187.154C119.602 187.177 119.851 187.471 119.828 187.788L119.805 188.217C119.76 188.557 119.489 188.806 119.149 188.76L113.879 188.331C113.563 188.308 113.314 188.014 113.336 187.697L113.382 187.267C113.404 186.951 113.698 186.702 114.015 186.725Z" fill="#FEFAE0" fill-opacity="0.4"/>
<path d="M112.16 187.38C112.092 188.195 111.391 188.805 110.576 188.738C109.785 188.67 109.174 187.969 109.242 187.154C109.31 186.34 110.011 185.729 110.825 185.797C111.617 185.865 112.228 186.566 112.16 187.38Z" fill="#3E5B20"/>
<path d="M85.2435 281.045C91.0565 260.552 91.5315 240.444 91.2601 235.988C91.2601 235.988 79.9733 223.344 77.4852 222.485C74.9972 221.625 72.6448 219.408 75.54 214.003C75.6531 211.628 73.2555 196.857 73.7984 195.546C74.8388 193.012 82.2126 188.059 85.4923 186.589C86.3744 186.227 89.9708 184.689 91.1018 184.417C92.2327 184.146 95.241 186.86 91.4863 190.366C87.7089 193.849 84.6102 195.071 84.0221 197.332C84.0221 197.332 93.6351 191.248 99.1767 190.411C104.718 189.597 104.831 191.339 104.017 194.302C103.18 197.287 98.8826 197.423 98.3172 198.056C97.7291 198.712 94.4946 202.037 94.4946 202.037C94.4946 202.037 103.384 200.386 104.266 201.607C105.148 202.851 108.79 207.081 108.383 209.072C107.953 211.062 106.46 210.7 106.46 210.7C106.46 210.7 107.229 212.397 104.786 213.301C104.786 213.301 108.224 214.116 108.36 215.111C109.038 218.73 107.161 225.221 107.704 228.569C108.247 231.939 114.06 285.591 114.309 302.849C114.557 320.13 79.4531 301.537 85.2435 281.045Z" fill="#F8C8B4"/>
<path d="M108.337 215.111C108.223 214.093 104.785 213.302 104.785 213.302C104.785 213.302 103.36 213.46 102.999 213.302C102.614 213.143 97.9093 220.042 98.4069 220.472C106.437 221.128 107.635 228.004 107.635 228.004C107.341 224.543 108.993 218.549 108.337 215.111Z" fill="#F2B5AC"/>
<path d="M81.1041 210.157C81.5565 215.835 93.5218 214.975 93.5218 214.975C93.5218 214.975 103.09 208.484 106.55 211.175C106.528 210.881 106.437 210.7 106.437 210.7C106.437 210.7 107.953 211.062 108.382 209.072C108.79 207.081 105.148 202.851 104.266 201.607C103.384 200.386 94.4944 202.015 94.4944 202.015C94.4944 202.015 97.7289 198.712 98.2944 198.056C98.8599 197.4 103.18 197.287 104.017 194.302C104.379 192.99 104.56 191.881 104.153 191.18C104.153 191.18 80.6517 204.503 81.1041 210.157Z" fill="#F2B5AC"/>
<path d="M106.573 211.175C106.528 210.881 106.46 210.7 106.46 210.7C105.985 210.135 103.045 206.244 102.049 206.719C101.032 207.194 93.3864 214.41 93.2959 212.872C93.1828 211.356 100.489 206.403 101.846 205.837C103.203 205.249 103.859 206.923 105.917 208.959C107.976 210.994 108.292 208.009 108.292 208.009C107.727 205.837 105.012 202.648 104.266 201.607C103.384 200.386 94.4947 202.015 94.4947 202.015C92.2555 202.399 85.3115 209.637 84.8591 208.484C84.4294 207.33 92.9566 198.305 97.7066 196.563C104.537 194.957 104.311 191.587 104.311 191.587C104.017 190.388 102.683 189.891 99.1768 190.411C93.6126 191.225 84.0222 197.332 84.0222 197.332C80.6746 198.35 76.9425 210.497 75.5402 214.003C72.3057 222.01 87.6412 221.195 91.9388 220.155C96.2364 219.114 101.122 213.053 102.841 211.605C105.42 212.917 106.483 211.922 106.573 211.175Z" fill="#F8C8B4"/>
<path d="M147.468 247.524C121.977 255.033 106.257 288.396 100.489 296.607C92.165 304.636 87.1663 321.352 87.483 326.011C90.2877 327.617 92.0519 331.417 93.9972 332.096C95.9198 332.797 97.7971 333.204 99.6292 333.362C114.58 334.584 127.292 319.271 140.004 301.99C150.182 288.125 158.845 274.033 159.207 273.445L147.468 247.524Z" fill="#B4AC79"/>
<path d="M111.979 248.067C111.888 247.094 112.092 243.317 111.956 240.715C105.804 241.1 87.053 237.798 85.628 240.195C86.1709 253.043 82.7102 275.639 81.0816 297.195C80.2221 308.821 76.5579 328.069 92.6398 332.864C99.154 334.81 105.985 332.095 110.644 327.3C121.592 316.059 117.747 290.793 116.276 280.57C114.603 269.057 113.087 259.67 111.979 248.067Z" fill="#B4AC79"/>
<path fill-rule="evenodd" clip-rule="evenodd" d="M256.603 193.668C238.802 221.964 222.2 221.512 211.253 224.633C200.282 227.755 244.864 181.59 244.864 181.59L256.603 193.668Z" fill="#351B0A"/>
<path d="M211.049 522.229C213.017 537.565 212.926 537.565 213.401 548.512L232.197 551.95L230.297 522.229H211.049Z" fill="#7D7D7D"/>
<path d="M146.45 518.158L150.838 550.887H170.018L166.422 519.085L146.45 518.158Z" fill="#7D7D7D"/>
<path d="M170.267 544.599C169.883 544.938 169.453 545.255 169 545.572C166.331 547.404 163.73 548.105 160.518 547.155C157.058 546.114 154.411 543.943 152.466 540.89C152.33 540.686 152.195 540.46 152.082 540.234C151.426 539.012 150.204 538.175 148.847 538.175H147.693C146.449 538.175 145.341 538.944 144.911 540.098C143.939 542.835 137.402 550.774 126.16 554.144C120.076 555.976 114.67 552.538 111.911 556.429C109.468 559.912 110.553 563.87 110.553 563.87L140.501 566.087L177.55 563.87C178.297 558.08 173.75 545.979 173.75 545.979C173.479 544.328 171.534 543.559 170.267 544.599Z" fill="#ECECED"/>
<path d="M242.512 567.014L207.317 566.879C207.928 558.804 207.747 548.218 209.647 545.255C211.094 542.971 212.949 544.418 215.867 545.843C216.907 542.812 219.101 540.347 223.444 540.098C227.538 539.849 229.958 541.862 231.338 544.576C232.469 543.853 233.419 543.287 234.482 543.287C237.852 543.287 240.612 554.438 242.512 567.014Z" fill="#ECECED"/>
<mask id="mask3_326_2199" style="mask-type:luminance" maskUnits="userSpaceOnUse" x="106" y="556" width="76" height="15">
<path d="M106.143 556.361H181.418V570.384H106.143V556.361Z" fill="white"/>
</mask>
<g mask="url(#mask3_326_2199)">
<path d="M179.021 568.914C179.383 568.914 179.699 568.597 179.677 568.236L179.496 561.676C179.496 561.292 179.179 560.998 178.795 560.998C175.718 561.088 162.803 561.54 147.581 563.87C136.045 565.612 114.964 562.468 110.192 561.608C109.581 561.495 109.016 561.88 108.903 562.49L108.563 564.142C108.428 564.752 108.835 565.34 109.445 565.521C121.479 569.321 179.021 568.914 179.021 568.914Z" fill="#C2C3C3"/>
</g>
<path d="M206.502 565.205C206.502 565.205 204.76 555.954 223.692 554.597C242.624 553.24 244.094 565.295 244.094 565.295L221.679 567.761L206.502 565.205Z" fill="#F7F7F7"/>
<mask id="mask4_326_2199" style="mask-type:luminance" maskUnits="userSpaceOnUse" x="198" y="562" width="53" height="9">
<path d="M198.789 562.151H250.903V570.385H198.789V562.151Z" fill="white"/>
</mask>
<g mask="url(#mask4_326_2199)">
<path d="M223.851 570.317C216.07 570.294 208.832 569.706 205.575 569.412C204.625 569.322 203.969 568.485 204.15 567.535L204.535 565.567C204.716 564.64 205.62 563.961 206.57 564.052C209.714 564.346 216.839 564.911 224.304 564.934C235.522 564.979 241.607 564.549 244.253 564.278C245.158 564.187 245.95 564.775 246.04 565.657L246.266 567.625C246.357 568.598 245.588 569.503 244.57 569.616C241.743 569.91 235.455 570.362 223.851 570.317Z" fill="#C2C3C3"/>
</g>
<path d="M174.746 398.753C174.588 398.73 171.376 399.251 171.217 399.228C159.116 397.848 147.897 385.883 135.819 384.345C132.969 405.041 134.688 487.894 145.794 536.728C146.043 537.791 146.201 538.56 147.513 538.605L172.801 539.261C174.52 539.306 175.854 538.017 175.515 536.637C162.464 482.985 172.914 406.873 174.746 398.753Z" fill="#B4AC79"/>
<path d="M235.07 539.668C236.563 539.668 237.785 538.673 237.785 537.451C237.649 519.356 236.925 488.052 229.257 465.365C221.024 440.937 225.661 387.466 225.729 386.788L186.644 391.809C178.637 392.397 185.06 443.787 195.691 473.621C202.318 492.214 206.593 519.424 208.177 538.107C208.267 538.989 209.172 539.668 210.258 539.668H235.07Z" fill="#B4AC79"/>
<path d="M136.904 367.494C135.525 383.146 134.597 401.558 134.597 401.558C134.597 401.558 161.197 404.069 189.425 403.843C207.769 403.684 223.421 405.064 224.62 397.509C225.728 390.497 226.588 377.989 227.266 369.191L154.751 372.47L136.904 367.494Z" fill="#3E5B20"/>
<path fill-rule="evenodd" clip-rule="evenodd" d="M219.486 214.116C214.419 228.411 205.598 257.635 186.756 258.675C178.161 259.173 174.542 210.859 174.542 210.859L219.486 214.116Z" fill="#DDA98E"/>
<path d="M188.656 301.944L188.747 368.602C188.272 368.602 187.774 368.602 187.277 368.625C174.542 368.964 164.228 368.738 155.95 368.24L170.064 301.537L167.304 236.667C167.508 236.621 167.666 236.576 167.779 236.576C178.388 236.576 177.257 237.684 193.542 237.119C203.63 236.757 211.75 236.983 218.378 237.594L188.656 301.944Z" fill="#B4AC79"/>
<path d="M196.007 253.066C179.156 255.282 174.293 241.756 174.655 234.36C179.586 234.496 185.241 236.916 193.542 237.097C199.242 237.232 206.276 235.265 213.356 235.559C213.854 240.444 212.202 250.939 196.007 253.066Z" fill="#F8C8B4"/>
<path d="M212.791 232.731C212.791 232.731 205.553 250.691 187.073 252.184C187.073 252.184 199.875 265.913 201.821 266.162C203.766 266.411 221.748 241.281 220.662 239.902C219.576 238.499 212.791 232.731 212.791 232.731Z" fill="#B4AC79"/>
<path d="M239.096 308.278L236.495 333.475L240.521 389.796C241.584 394.795 239.006 393.777 236.721 393.867L231.632 394.048L227.696 382.309L223.331 394.32L188.792 395.473L188.747 368.602L188.656 301.945L218.377 237.617L218.468 237.413C237.241 239.607 262.529 245.601 257.327 265.257L239.096 308.278Z" fill="#B4AC79"/>
<path d="M170.064 301.538L189.516 368.783L188.793 395.474L130.414 392.624C128.446 392.33 126.862 391.583 125.867 390.678C125.867 390.678 127.473 286.27 140.66 252.749C141.112 251.528 145.206 247.592 146.405 246.959C151.766 244.199 166.739 236.622 172.371 234.36L170.064 301.538Z" fill="#B4AC79"/>
<path d="M211.411 282.153H214.871V285.297H211.411V282.153Z" fill="#5A5B5B"/>
<path d="M226.226 313.978H200.531C199.627 313.978 198.903 313.231 198.903 312.327V287.016C198.903 286.134 199.627 285.388 200.531 285.388H226.226C227.131 285.388 227.855 286.134 227.855 287.016V312.327C227.855 313.231 227.131 313.978 226.226 313.978Z" fill="white"/>
<path d="M225.978 285.388H200.78C200.283 285.388 199.83 285.523 199.491 285.772C199.717 285.704 199.989 285.659 200.26 285.659H225.458C226.475 285.659 227.335 286.292 227.335 287.084V312.824C227.335 313.231 227.109 313.593 226.724 313.865C227.403 313.639 227.855 313.141 227.855 312.553V286.813C227.855 286.021 227.018 285.388 225.978 285.388Z" fill="#D2D7DA"/>
<path d="M200.509 289.64H214.872V303.279H200.509V289.64Z" fill="#3E5B20" fill-opacity="0.46"/>
<path d="M225.978 291.608H217.495C217.201 291.608 216.953 291.427 216.953 291.201C216.953 290.975 217.201 290.816 217.495 290.816H225.978C226.272 290.816 226.498 290.975 226.498 291.201C226.52 291.427 226.272 291.608 225.978 291.608Z" fill="#D2D7DA"/>
<path d="M226.204 293.055H217.269C217.088 293.055 216.953 292.92 216.953 292.761V292.558C216.953 292.399 217.088 292.264 217.269 292.264H226.204C226.362 292.264 226.498 292.399 226.498 292.558V292.761C226.52 292.92 226.362 293.055 226.204 293.055Z" fill="#D2D7DA"/>
<path d="M224.982 294.435H217.428C217.179 294.435 216.953 294.277 216.953 294.073C216.953 293.87 217.179 293.711 217.428 293.711H224.982C225.231 293.711 225.457 293.87 225.457 294.073C225.457 294.277 225.231 294.435 224.982 294.435Z" fill="#D2D7DA"/>
<path d="M216.297 305.609H201.233C200.939 305.609 200.712 305.428 200.712 305.202C200.712 304.998 200.939 304.817 201.233 304.817H216.297C216.591 304.817 216.817 304.998 216.817 305.202C216.817 305.428 216.591 305.609 216.297 305.609Z" fill="#D2D7DA"/>
<path d="M216.297 307.056H201.233C200.939 307.056 200.712 306.875 200.712 306.672C200.712 306.446 200.939 306.265 201.233 306.265H216.297C216.591 306.265 216.817 306.446 216.817 306.672C216.817 306.875 216.591 307.056 216.297 307.056Z" fill="#D2D7DA"/>
<path d="M214.578 308.436H201.187C200.916 308.436 200.712 308.278 200.712 308.074C200.712 307.893 200.916 307.735 201.187 307.735H214.578C214.827 307.735 215.053 307.893 215.053 308.074C215.053 308.278 214.827 308.436 214.578 308.436Z" fill="#D2D7DA"/>
<path d="M201.255 312.327H201.188L201.233 309.296H201.301L201.255 312.327Z" fill="#4267A1"/>
<path d="M201.73 312.349H201.663L201.708 309.296H201.776L201.73 312.349Z" fill="#4267A1"/>
<path d="M202.182 312.349H202.114L202.159 309.318H202.227L202.182 312.349Z" fill="#4267A1"/>
<path d="M202.635 312.349H202.567L202.612 309.318H202.68L202.635 312.349Z" fill="#4267A1"/>
<path d="M203.11 312.349H203.042L203.087 309.318H203.155L203.11 312.349Z" fill="#4267A1"/>
<path d="M203.562 312.372H203.495L203.54 309.341H203.608L203.562 312.372Z" fill="#4267A1"/>
<path d="M204.014 312.372H203.946L203.992 309.341H204.059L204.014 312.372Z" fill="#4267A1"/>
<path d="M204.467 312.372H204.421L204.444 309.341H204.512L204.467 312.372Z" fill="#4267A1"/>
<path d="M204.942 312.395H204.874L204.919 309.341H204.987L204.942 312.395Z" fill="#4267A1"/>
<path d="M205.395 312.395H205.327L205.372 309.364H205.44L205.395 312.395Z" fill="#4267A1"/>
<path d="M205.846 312.395H205.778L205.824 309.364H205.891L205.846 312.395Z" fill="#4267A1"/>
<path d="M206.321 312.395H206.253L206.299 309.364H206.367L206.321 312.395Z" fill="#4267A1"/>
<path d="M206.774 312.417H206.706L206.751 309.364H206.819L206.774 312.417Z" fill="#4267A1"/>
<path d="M207.227 312.417H207.159L207.204 309.386H207.272L207.227 312.417Z" fill="#4267A1"/>
<path d="M207.702 312.417H207.634L207.656 309.386H207.724L207.702 312.417Z" fill="#4267A1"/>
<path d="M208.153 312.417H208.085L208.131 309.386H208.199L208.153 312.417Z" fill="#4267A1"/>
<path d="M208.606 312.44H208.538L208.583 309.409H208.651L208.606 312.44Z" fill="#4267A1"/>
<path d="M209.059 312.44H208.991L209.036 309.409H209.104L209.059 312.44Z" fill="#4267A1"/>
<path d="M209.534 312.44H209.466L209.511 309.409H209.579L209.534 312.44Z" fill="#4267A1"/>
<path d="M209.985 312.44H209.917L209.963 309.409H210.031L209.985 312.44Z" fill="#4267A1"/>
<path d="M210.438 312.463H210.371L210.416 309.432H210.484L210.438 312.463Z" fill="#4267A1"/>
<path d="M210.913 312.463H210.845L210.89 309.432H210.936L210.913 312.463Z" fill="#4267A1"/>
<path d="M197.659 284.483H228.624V287.853H197.659V284.483Z" fill="#5A5B5B"/>
<path d="M197.863 284.687H228.398V285.772H197.863V284.687Z" fill="#8A8A8A"/>
<path d="M175.809 246.076C177.619 257.544 183.409 271.749 183.409 271.749L202.477 247.207C195.08 248.044 184.382 247.524 175.809 246.076Z" fill="white"/>
<path d="M217.631 236.961L183.093 280.253C176.737 270.527 170.019 241.372 172.869 231.714C174.475 231.148 176.081 230.696 177.596 230.289C177.166 243.294 179.564 262.633 184.427 270.03L212.746 232.256C216.727 232.867 218.287 236.961 217.631 236.961Z" fill="#FEFAE0" fill-opacity="0.980392"/>
<path d="M228.014 365.074L190.738 363.128L191.122 355.936L228.375 357.881L228.014 365.074Z" fill="#3E5B20"/>
<path d="M168.208 361.952L130.933 360.007L131.317 352.814L168.593 354.76L168.208 361.952Z" fill="#3E5B20"/>
<path d="M183.522 300.022C183.771 300.701 183.726 301.357 183.432 302.013C183.115 302.646 182.64 303.098 181.961 303.347C181.283 303.573 180.627 303.551 179.994 303.234C179.338 302.917 178.908 302.442 178.659 301.764C178.433 301.085 178.455 300.429 178.772 299.773C179.066 299.14 179.564 298.688 180.242 298.439C180.898 298.213 181.554 298.235 182.21 298.552C182.843 298.869 183.296 299.344 183.522 300.022Z" fill="#3E5B20"/>
<path d="M177.618 318.343C177.55 319.768 178.636 320.99 180.061 321.058C181.486 321.148 182.707 320.04 182.775 318.615C182.843 317.167 181.757 315.946 180.332 315.878C178.907 315.81 177.686 316.896 177.618 318.343Z" fill="#3E5B20"/>
<path d="M176.714 335.941C176.623 337.366 177.732 338.587 179.156 338.655C180.581 338.723 181.78 337.637 181.871 336.189C181.939 334.764 180.853 333.543 179.428 333.475C178.003 333.407 176.782 334.493 176.714 335.941Z" fill="#3E5B20"/>
<path d="M180.966 353.357C181.034 354.081 180.853 354.714 180.401 355.257C179.948 355.822 179.383 356.139 178.659 356.23C177.958 356.297 177.325 356.116 176.759 355.664C176.216 355.212 175.9 354.646 175.809 353.922C175.741 353.221 175.922 352.588 176.375 352.022C176.827 351.457 177.393 351.14 178.116 351.072C178.818 350.982 179.451 351.163 179.994 351.615C180.559 352.068 180.876 352.656 180.966 353.357Z" fill="#3E5B20"/>
<path fill-rule="evenodd" clip-rule="evenodd" d="M175.809 223.458L177.257 231.849L212.519 232.528L215.211 226.127L199.83 218.481L175.809 223.458Z" fill="#DDA98E"/>
<path fill-rule="evenodd" clip-rule="evenodd" d="M150.725 126.875C145.07 156.189 143.939 176.524 145.251 192.945C148.599 235.016 222.268 242.48 242.964 206.448C244.389 203.983 245.633 201.404 246.719 198.826C264.769 204.955 276.214 189.371 278.702 176.976C281.755 161.844 261.082 165.305 261.082 165.305C261.082 165.305 266.375 146.011 258.209 118.642C247.171 81.6831 154.14 109.165 150.725 126.875Z" fill="#F8C8B4"/>
<path fill-rule="evenodd" clip-rule="evenodd" d="M167.394 151.258C171.127 152.027 173.366 156.528 172.393 161.346C171.421 166.164 167.621 169.444 163.889 168.675C160.179 167.928 157.94 163.427 158.912 158.609C159.862 153.792 163.685 150.512 167.394 151.258Z" fill="#351B0A"/>
<path fill-rule="evenodd" clip-rule="evenodd" d="M168.548 154.266C169.611 154.493 170.312 155.556 170.109 156.641C169.883 157.727 168.82 158.428 167.756 158.202C166.671 157.976 165.97 156.936 166.196 155.85C166.399 154.741 167.462 154.04 168.548 154.266Z" fill="white"/>
<path fill-rule="evenodd" clip-rule="evenodd" d="M266.601 176.003C270.129 176.75 270.491 181.138 267.415 185.797C264.361 190.479 259.046 193.646 255.517 192.922C252.011 192.176 251.649 187.788 254.726 183.106C257.779 178.446 263.095 175.257 266.601 176.003Z" fill="#EFA69B"/>
<path fill-rule="evenodd" clip-rule="evenodd" d="M219.124 183.354C214.804 183.739 211.456 186.023 211.682 188.444C211.886 190.886 215.573 192.538 219.893 192.176C224.213 191.791 227.538 189.507 227.312 187.086C227.108 184.644 223.444 182.97 219.124 183.354Z" fill="#F2B5AC"/>
<path fill-rule="evenodd" clip-rule="evenodd" d="M158.799 176.908C154.57 175.913 150.702 177.044 150.136 179.419C149.594 181.816 152.579 184.531 156.786 185.526C161.016 186.521 164.884 185.39 165.449 182.992C165.992 180.617 163.007 177.903 158.799 176.908Z" fill="#F2B5AC"/>
<path d="M158.302 143.229C158.415 144.608 159.026 145.038 160.044 145.083C161.763 145.151 164.636 144.156 168.187 144.179C171.625 144.201 174.022 145.423 175.9 145.129C177.121 144.925 177.981 144.292 178.343 142.799C179.858 136.647 173.457 135.697 168.865 135.81C164.115 135.945 157.986 139.089 158.302 143.229Z" fill="#3D271F"/>
<path d="M229.46 153.09C228.85 154.492 227.877 154.741 226.475 154.402C224.122 153.882 220.594 151.823 215.753 150.579C211.094 149.403 207.452 149.81 205.01 148.838C203.404 148.204 202.454 147.232 202.454 145.558C202.476 138.614 211.479 139.813 217.631 141.668C223.941 143.568 231.247 148.928 229.46 153.09Z" fill="#3D271F"/>
<path d="M183.997 164.648C183.997 164.648 171.918 177.813 173.456 183.445C174.994 189.054 191.483 190.298 194.288 185.186C197.093 180.097 188.633 165.395 188.633 165.395L183.997 164.648Z" fill="#F8C8B4"/>
<path d="M173.479 180.595C173.117 181.771 173.208 182.789 173.434 183.648C175.063 190.072 191.71 191.248 194.266 185.526C194.651 184.621 194.99 183.467 194.854 182.11C187.933 183.92 180.808 182.517 173.479 180.595Z" fill="#EFA69B"/>
<path d="M186.734 165.735C186.553 165.395 186.418 165.192 186.418 165.192L185.06 165.079C182.21 169.218 179.315 174.036 176.963 179.08C179.835 180.03 182.799 180.437 185.784 180.437C185.897 175.506 186.35 170.62 186.734 165.735Z" fill="#FAD6C7"/>
<path d="M167.508 93.9648C140.637 96.4529 145.025 160.803 145.025 160.803C151.358 142.844 158.573 109.052 179.745 111.381C179.745 111.381 173.977 105.455 167.508 93.9648Z" fill="#3D231D"/>
<path d="M175.696 196.586C175.696 196.586 192.456 208.823 207.86 193.239C207.86 193.239 206.819 192.017 203.2 191.135C203.2 191.135 207.769 187.923 210.981 191.406C215.957 196.812 213.831 197.808 213.831 197.808C213.831 197.808 211.818 194.822 210.28 194.234C210.28 194.234 193.158 214.5 175.696 196.586Z" fill="#B85B75"/>
<path d="M289.174 327.843C293.54 306.604 279.493 290.884 272.911 275.3C269.089 266.23 254.658 250.487 250.971 248.61C248.664 249.854 247.194 251.166 245.905 252.206C244.615 253.247 243.552 254.378 242.715 255.599C235.839 265.506 242.489 281.317 250.632 298.032C257.169 311.422 264.452 323.84 264.769 324.383L289.174 327.843Z" fill="#B4AC79"/>
<path fill-rule="evenodd" clip-rule="evenodd" d="M228.511 343.179C222.834 335.443 221.793 333.317 221.793 333.317L210.642 328.997C206.684 332.616 214.352 335.217 216.523 336.461C217.699 337.139 216.184 337.479 218.785 342.206C218.785 342.206 214.555 338.791 210.031 340.306C205.508 341.844 202.318 343.133 202.318 343.133C202.205 345.282 201.255 346.277 203.11 346.933C204.784 347.544 210.8 345.011 212.022 345.757L217.677 349.195C212.542 348.946 212.655 348.743 208.697 350.19C207.453 350.643 203.789 351.819 203.336 352.475C202.092 354.194 203.811 356.297 206.05 356.614C208.493 356.953 212.61 355.189 214.736 355.234C216.342 355.257 217.473 355.212 215.505 356.049C214.125 356.614 209.421 357.768 208.267 358.808C206.571 360.346 208.652 363.377 211.004 362.857C213.356 362.337 219.599 359.826 221.341 361.093C223.082 362.382 227.538 367.539 232.175 366.069C237.604 364.327 239.843 365.662 240.205 364.485C240.951 362.11 236.948 354.058 234.844 349.851C233.849 347.861 232.266 348.29 228.511 343.179Z" fill="#F8C8B4"/>
<path d="M232.876 345.712C232.876 345.712 245.747 336.529 258.006 324.88C267.528 317.19 279.132 309.138 287.908 317.642C287.953 317.687 287.953 317.71 287.953 317.733C290.328 322.37 292.454 328.115 283.226 337.999C273.997 347.884 237.287 367.494 237.287 367.494L232.876 345.712Z" fill="#B4AC79"/>
<path d="M212.564 164.965C203.313 163.088 200.214 170.643 200.214 170.643C200.214 170.643 203.766 167.046 211.863 169.059C219.983 171.095 220.277 175.166 220.277 175.166C220.277 175.166 221.815 166.843 212.564 164.965Z" fill="#351B0A"/>
<path d="M207.362 161.799C200.282 163.608 200.622 169.76 200.622 169.76C200.622 169.76 201.888 166.141 208.222 164.807C214.555 163.495 218.332 165.146 218.332 165.146C218.332 165.146 214.419 159.989 207.362 161.799Z" fill="#351B0A"/>
<path d="M207.792 88.1971C143.057 83.7865 147.852 150.376 147.852 150.376C154.524 131.557 166.218 108.645 176.374 109.549C176.374 109.549 184.178 117.308 197.274 119.343C208.99 121.153 231.519 116.267 231.519 116.267C251.491 118.054 248.686 151.869 246.289 178.808C245.746 184.983 252.079 180.618 252.079 180.618C252.079 180.618 255.811 164.943 268.365 165.666C273.68 165.983 275.535 141.985 275.173 135.991C273.771 112.829 248.573 90.9792 207.792 88.1971Z" fill="#3D231D"/>
<path d="M269.541 165.011C269.541 165.011 261.602 156.958 259.702 161.143C257.802 165.305 255.947 168.245 255.789 164.92C255.63 161.595 259.589 152.525 256.807 148.024C253.957 143.41 252.871 132.462 253.007 126.242C249.026 123.302 241.154 116.018 224.326 114.661C207.475 113.304 184.178 115.408 172.303 107.107C168.435 102.311 165.291 95.8877 165.291 95.8877C165.291 95.8877 163.979 86.32 171.466 79.851C178.93 73.3594 197.523 68.9714 216.749 72.5904C235.997 76.2094 252.079 81.6379 258.028 91.8616C258.752 93.1056 259.453 94.2818 260.109 95.458C261.805 98.3758 263.343 101.045 264.791 103.42C267.505 107.898 272.074 113.282 273.454 116.878C279.81 133.299 272.617 157.479 269.541 165.011Z" fill="#3D231D"/>
<path d="M153.846 88.1971C153.846 88.1971 148.169 105.614 147.468 110.544C146.495 117.375 144.12 136.488 144.12 136.488C178.749 110.567 253.821 131.987 271.012 165.305L281.597 121.04C285.035 108.079 280.466 94.1232 269.654 86.2293C244.231 67.6592 199.808 57.9332 169.906 68.1116C161.175 71.0747 155 78.9913 153.846 88.1971Z" fill="#B4AC79"/>
<defs>
<filter id="filter0_f_326_2199" x="31" y="560" width="299" height="20" filterUnits="userSpaceOnUse" color-interpolation-filters="sRGB">
<feFlood flood-opacity="0" result="BackgroundImageFix"/>
<feBlend mode="normal" in="SourceGraphic" in2="BackgroundImageFix" result="shape"/>
<feGaussianBlur stdDeviation="2" result="effect1_foregroundBlur_326_2199"/>
</filter>
</defs>
</svg>
