<svg width="3956" height="1175" viewBox="0 0 3956 1175" fill="none" xmlns="http://www.w3.org/2000/svg">
<g clip-path="url(#clip0_460_2239)">
<path d="M360.83 975.573C341.05 1074.66 472.125 1011.73 514.51 990.515C522.41 1024.31 476.154 1039.46 454.98 1057.38C283.094 1147.96 334.958 891.509 404.829 817.403C385.918 821.725 262.15 877.423 296.761 820.399C880.182 613.417 1549.52 545.595 2148.94 698.733C2151.06 741.247 2014.1 689.045 1994.61 691.644C1749.44 648.146 1498.37 639.839 1249.99 654.999C996.136 669.009 723.308 712.877 482.228 792.565C514.678 825.435 499.917 875.043 490.262 864.502C443.154 754.261 377.704 925.367 360.83 975.571V975.573Z" fill="white"/>
<path d="M0.585756 428.553C71.1858 428.83 38.4268 278.186 45.3248 238.161C45.6148 206.981 45.5628 105.691 43.9998 76.1376L2.39777 72.9036C16.1128 -9.65437 323.829 13.2906 347.878 127.106C406.494 245.013 363.177 436.022 212.125 446.828C185.35 442.294 -12.1052 467.622 0.585756 428.553ZM281.225 361.368C320.896 287.628 320.409 189.496 274.749 118.668C247.785 79.2826 205.069 57.7586 157.446 59.2326C61.6127 28.2366 119.158 268.683 104.387 305.259C70.9648 431.314 222.799 452.644 281.225 361.368Z" fill="white"/>
<path d="M2250.27 291.129C2480.74 306.167 2271.43 60.8642 2230.32 307.487C2216.48 356.977 2239.86 423.166 2248.5 446.844C2236.49 451.441 2125.96 466.188 2141.52 428.17C2161.65 429.856 2172.44 412.932 2172.39 394.301C2158.19 377.114 2209.18 11.7702 2137 48.2072C2121.61 17.3512 2182.73 4.92417 2204.7 0.044173C2273.57 -4.36883 2177.23 323.649 2259.45 186.053C2337.97 93.2282 2472.64 222.369 2373.31 298.354C2299.56 334.216 2339.87 334.047 2363.36 394.177C2376.26 442.839 2422.3 395.427 2430.55 416.063C2434.39 435.338 2401.4 453.73 2382.82 457.056C2317.6 476.895 2286.4 350.093 2259.08 314.496C2246.95 313.704 2238.13 297.297 2250.27 291.13V291.129Z" fill="white"/>
<path d="M1867.75 404.806C1891.48 444.154 1890.67 455.629 1839.95 450.633C1827.41 446.731 1758.3 461.573 1779.08 428.413C1835.44 438.284 1798.24 241.508 1808.68 217.521C1808.67 217.521 1777.03 214.561 1777.03 214.561C1743.76 188.224 1858.28 137.52 1862.69 180.08C1862.69 180.086 1865.13 231.281 1865.13 231.281C1898.64 144.386 2043.44 123.366 2044.36 239.209C2046.26 245.401 2041.7 412.867 2050.47 413.146C2069.21 425.015 2084.44 402.601 2095.02 410.838C2110.59 447.404 2024 476.825 2004.93 445.441C1972.28 405.182 2014.54 253.533 1978.02 215.694C1876.52 160.812 1851.54 336.385 1867.75 404.805V404.806Z" fill="white"/>
<path d="M812.275 363.453C806.335 423.839 867.734 456.044 792.359 451.328C781.524 445.89 707.252 462.522 725.392 429.306C785.698 438.04 746.479 243.794 757.144 216.775C693.945 221.054 719.298 185.519 759.783 170.222C823.891 143.113 805.964 190.588 813.967 229.312C851.308 138.826 997.304 127.855 992.902 245.868C1003.67 266.057 962.865 461.946 1033.9 409.088C1074.52 415.018 1018.44 454.987 999.032 457.454C887.637 477.284 973.706 261.379 927.153 217.253C841.18 162.659 805.984 299.783 812.275 363.454L812.275 363.453Z" fill="white"/>
<path d="M1555.01 356.583C1552.12 362.326 1561.01 459.732 1549.5 460.028C1528.57 430.605 1271.61 473.733 1284.46 427.96C1363.36 433.913 1311.7 149.873 1325.81 113.383C1328.81 82.6408 1309.87 63.0548 1281.07 58.5588C1257.17 17.1348 1397.42 44.3218 1407.39 36.8528C1430.19 35.8498 1393.57 81.8638 1393.58 89.0148C1372.96 172.005 1390.28 304.478 1385.36 390.578C1381.28 428.169 1467.57 407.262 1485.3 412.7C1536.25 419.534 1512.66 339.001 1555.01 356.582V356.583Z" fill="white"/>
<path d="M577.253 193.491C399.952 168.08 472.191 538.217 647.909 384.293C706.846 435.376 521.539 483.822 483.441 443.584C341.713 356.759 443.513 100.848 610.07 165.581C710.126 205.842 650.463 348.957 551.943 337.896C527.47 336.992 476.038 331.69 493.652 296.223C562.436 335.059 655.249 243.695 577.253 193.491Z" fill="white"/>
<path d="M1209.01 444.563C1068.81 526.789 1126.92 263.031 1115.11 201.238C1115.12 201.24 1068.05 200.16 1068.05 200.16C1060.43 181.853 1074.12 171.545 1091.41 170.263C1138.81 154.345 1134.47 103.326 1146.7 92.3262C1183.65 67.8202 1165.48 149.895 1170.07 161.98C1170.07 161.976 1244.14 165.778 1244.14 165.778C1246.07 211.799 1199.82 199.941 1169.86 201.997C1169.87 202 1170.9 399.54 1170.9 399.54C1175.33 428.053 1211.46 414.533 1226.23 402.137C1256.88 406.73 1222.67 437.009 1209.01 444.563Z" fill="white"/>
<path d="M1734.56 417.245C1740.69 451.686 1624.94 488.337 1629.04 414.704C1618.78 395.045 1655.08 181.147 1596.22 208.22C1562.82 181.926 1677.51 131.969 1681.03 174.849C1680.96 206.403 1681.68 383.542 1681.84 410.847C1707.85 431.585 1724.67 391.142 1734.56 417.245Z" fill="white"/>
<path d="M1413.1 1133.3C1359.5 1295.14 1405.36 930.381 1417.51 924.129C1426.92 918.822 1438.47 933.267 1445.52 940.972C1458.96 916.76 1493.53 915.497 1490.57 948.838C1477.26 1077.38 1422.06 1000.66 1413.1 1133.3ZM1459.49 1005.61C1465.4 996.107 1482.1 942.45 1472.85 940.121C1453.72 943.699 1430.89 994.625 1459.49 1005.61Z" fill="white"/>
<path d="M1200.43 1059.19C1133.85 1094.08 1197.26 908.935 1185.88 883.369C1179.36 882.123 1155.89 887.454 1153.79 877.836C1148.95 856 1197.1 870.795 1197.83 842.15C1193.01 779.103 1236.32 764.131 1231.9 838.346C1240.72 838.044 1270.19 820.082 1275.45 834.534C1208.29 857.15 1211.93 945.111 1204.82 1001.36C1227.5 1013.38 1212.94 1040.99 1200.43 1059.2V1059.19Z" fill="white"/>
<path d="M1057.04 1046.92C985.883 1129.54 1036.59 908.048 1034.91 886.14C1004.31 884.195 981.201 873.038 1024.4 862.377C1063.39 857.573 1029.71 800.014 1063.72 789.695C1087.72 789.001 1073.59 822.37 1078.31 837.977C1088.79 840.287 1109.43 822.094 1120.83 831.198C1117.1 852.927 1067.96 856.601 1067.25 885.033C1067.25 885.03 1051.96 1004.6 1051.96 1004.6C1075.39 1006.17 1058.44 1034.62 1057.04 1046.92Z" fill="white"/>
<path d="M1672.39 1010.64C1672.04 1028.72 1664.54 1060.74 1644.21 1066.56C1600.55 1064.23 1648.52 907.809 1643.06 883.154C1636.46 881.089 1605.32 888.346 1609.11 873.334C1608.92 858.163 1652.03 869.633 1653.18 842.871C1651.92 824.565 1655.95 775.156 1684.39 793.075C1688.49 803.055 1681.4 832.954 1688.59 837.53C1697.41 843.138 1720.75 818.39 1730.84 834.508C1718.95 844.952 1683.26 861.493 1677.89 877.079C1677.88 917.043 1644.79 983.14 1672.39 1010.64Z" fill="white"/>
<path d="M2025.41 1011.35C2026.61 1025.5 2006.88 1078.95 1987.41 1064.87C1948.63 1046.09 2036.24 860.105 1966.19 881.829C1948.55 864.617 1983.2 867.261 2000.49 855.15C2008.44 852.156 1998.84 770.06 2036.65 793.425C2041.12 849.076 2029.91 836.793 2082.99 829.291C2072.73 849.304 2041.12 854.598 2029.26 877.137C2032.74 887.28 1996.51 1015.45 2025.41 1011.35Z" fill="white"/>
<path d="M1829.76 1033.26C1840.99 1042.18 1820.93 1067.98 1789.55 1067.53C1729.64 1053.7 1776.85 877.251 1839.02 925.019C1863.6 964.834 1736.17 1041.99 1829.76 1033.26ZM1821.06 955.461C1833.04 920.824 1795.11 954.654 1809.13 973.923C1812.53 967.625 1816.55 961.917 1821.06 955.461Z" fill="white"/>
<path d="M855.117 1028.94C861.05 1049.89 901.988 1015.22 890.94 1047.21C800.707 1133 804.301 914.17 881.831 914.753C944.847 940.115 847.283 993.146 855.117 1028.94ZM872.177 969.887C875.386 961.944 891.541 944.762 879.777 936.675C873.323 943.132 856.849 967.146 872.177 969.887Z" fill="white"/>
<path d="M1589.48 955.343C1588.26 982.27 1577.65 1119.07 1547.39 1029.9C1536.02 1035.99 1518.35 1048.17 1506.8 1035.07C1475.29 995.23 1565.56 892.688 1589.48 955.343ZM1560.79 960.132C1547.97 948.456 1511.68 1008.74 1524.96 1014.02C1536.6 1018.66 1570.37 968.849 1560.79 960.132Z" fill="white"/>
<path d="M795.406 1064.9C771.268 1101.45 792.866 964.215 788.788 963.359C730.691 1079.59 703.962 1043.83 729.226 934.893C758.992 914.486 749.429 965.911 753.767 981.848C835.684 857.96 800.261 1017.53 795.406 1064.9Z" fill="white"/>
<path d="M1927.83 1074.47C1913.88 1076.99 1929.27 967.367 1926.63 961.356C1907.57 977.558 1885.1 1067.12 1856.84 1032.55C1848.9 982.932 1880.95 858.994 1891.76 982.183C1964.74 858.733 1944.76 1021.21 1927.83 1074.47Z" fill="white"/>
<path d="M691.031 1068.23C670.59 1101 689.407 961.395 685.451 961.576C666.967 978.968 643.869 1070.23 615.999 1028.14C607.054 977.746 644.53 862.081 648.924 983.461C732.687 856.109 695.436 1019.42 691.031 1068.23Z" fill="white"/>
<path d="M541.529 945.992C576.343 913.776 571.994 958.255 556.202 977.5C548.571 991.235 538.937 1048.37 561.574 1030.96C589.351 1002.83 570.263 953.367 586.514 928.238C651.853 1021.33 468.05 1151.02 541.529 945.992Z" fill="white"/>
<path d="M1265.06 945.031C1333.76 902.767 1244.58 1015.61 1275.51 1035.39C1314.36 1015.79 1293.71 956.732 1307.1 928.861C1372.44 1053.51 1184.45 1123.86 1265.06 945.031Z" fill="white"/>
<path d="M956.84 1022.49C1004.58 996.657 978.736 1053.21 935.447 1044.2C911.684 1038.74 901.165 967.561 952.461 936.284C976.702 921.468 983.856 950.418 974.848 968.746C948.302 934.912 928.002 1030.91 956.84 1022.49Z" fill="white"/>
<path d="M1684.68 56.4306C1713.88 105.666 1623.75 135.657 1619.8 74.8916C1620.44 38.8956 1666.83 21.9436 1684.68 56.4306Z" fill="white"/>
<path d="M1708.16 1058.19C1675.04 1059.48 1709.66 969.934 1706.5 954.631C1704.24 924.851 1751.2 917.893 1742.5 951.982C1736.51 962.976 1724.68 1056.72 1708.16 1058.19Z" fill="white"/>
<path d="M1753.94 861.416C1759.98 870.621 1749.29 886.955 1739.23 886.92C1712.48 882.961 1736.98 843.485 1753.94 861.416Z" fill="white"/>
<path d="M2788.65 1162.65C2692.3 1148.34 2448.56 1212.05 2435.69 1057.8C2408.37 875.662 2501.42 685.027 2688.26 636.952C2405.76 429.827 2885.93 125.46 2946.04 473.291C2988.12 453.181 3031.44 442.027 3077.04 434.714C2948.3 360.112 2921.13 174.064 3027.89 69.356C3166.59 -82.869 3438.13 34.212 3425.79 239.259C3434.52 423.191 3198.42 411.549 3439.22 471.404C3503.41 127.17 3980.33 425.581 3698.82 637.189C3698.83 637.175 3750.15 654.952 3750.15 654.952C3889.11 702.931 3973.04 891.442 3952.5 1039.85C3991.69 1277.44 2949.14 1119.38 2788.65 1162.65ZM2900.97 539.91C2971.18 381.733 2726.16 269.658 2653.57 424.536C2569.43 588.06 2830.26 709.195 2900.97 539.91ZM3601.58 622.002C3797.53 637.566 3787 326.245 3595.12 350.427C3436.27 365.019 3439.65 612.736 3601.58 622.002ZM2619.25 957.921L2619.65 1127.25C2659.7 1127.32 2885.92 1125.69 2930.93 1126.26C2917.17 755.747 2980.12 730.598 2966.8 1126.22C3178.85 1132.81 3074.96 783.809 2950.59 716.378C2862.32 661.639 2775.29 646.943 2674.91 678.538C2692.24 711.975 2767.62 804.506 2766.9 843.182C2776.25 916.734 2670.87 959.678 2626.26 901.684C2626.27 901.684 2541.8 769.86 2541.8 769.86C2464.86 857.92 2397.3 1143.41 2584.1 1126.43C2591.85 1112.84 2560.22 885.899 2619.25 957.921ZM3767.3 1126.31C3754.47 883.684 3815.24 886.826 3802.41 1126.46C3988.42 1141.09 3923.66 860.061 3845.4 771.311C3803.18 833.611 3728.31 1002.75 3636.36 898.759C3582.04 818.789 3681.44 749.083 3709.46 676.393C3464.29 581.672 3198.46 889.307 3337.83 1107.75C3500.55 1231.13 3371.26 857.67 3438.87 839.068C3463.24 837.985 3452.67 884.484 3455.75 897.592C3452.89 1231.74 3421.01 1104.13 3767.3 1126.31Z" fill="white"/>
</g>
<defs>
<clipPath id="clip0_460_2239">
<rect width="3956" height="1175" fill="white"/>
</clipPath>
</defs>
</svg>
