<svg width="786" height="433" viewBox="0 0 786 433" fill="none" xmlns="http://www.w3.org/2000/svg">
<path fill-rule="evenodd" clip-rule="evenodd" d="M54.9003 253.532C57.7008 251.415 60.5741 249.201 63.5314 246.976C91.0659 226.133 123.914 206.091 138.886 195.732C170.027 173.72 203.296 152.308 237.897 131.952C288.057 102.476 341.14 75.7783 395.84 55.623C457.792 32.7739 521.539 17.8472 585.333 17.1201C614.559 16.5766 645.532 20.279 674.789 29.202C704.225 38.1894 731.779 52.4191 753.971 73.3943C765.353 84.1079 777.881 100.373 782.088 117.015C784.952 128.569 783.813 140.204 775.746 150.457C784.709 140.527 786.487 128.546 784.25 116.559C781.023 98.9133 769.083 81.2568 757.881 69.2923C736.081 46.074 708.298 29.4186 678.247 18.3187C648.184 7.13261 616.019 1.48022 585.455 0.267925C503.272 -2.49678 419.7 16.3147 340.274 48.0053C301.378 63.5693 263.473 82.1616 227.276 102.725C190.126 123.85 154.886 147.183 121.812 170.762C104.735 183.322 63.7259 209.595 34.7007 234.753C18.4237 248.876 5.82593 263.049 1.23668 274.43C-1.21766 280.535 0.309947 285.072 2.95227 288.325C4.78844 290.63 8.66267 294.162 15.3323 293.56C20.9099 293.1 37.0785 286.708 38.4618 286.178L77.1668 270.463C96.169 263.528 115.361 258.059 134.861 254.304C154.361 250.549 174.157 248.422 194.39 248.343C252.405 247.839 304.849 263.665 345.984 294.374C388.048 325.664 418.354 372.333 430.983 432.868C421.429 370.356 392.775 321.281 351.591 286.895C309.965 252.392 255.623 233.128 194.534 230.348C173.148 229.437 152.21 230.66 131.422 233.705C110.635 236.75 90.1883 241.767 69.8478 248.262L54.9003 253.532Z" fill="white"/>
</svg>
