<svg width="365" height="443" viewBox="0 0 365 443" fill="none" xmlns="http://www.w3.org/2000/svg">
<mask id="mask0_0_599" style="mask-type:luminance" maskUnits="userSpaceOnUse" x="0" y="31" width="204" height="394">
<path d="M0 31.04H203.458V424.215H0V31.04Z" fill="white"/>
</mask>
<g mask="url(#mask0_0_599)">
<path fill-rule="evenodd" clip-rule="evenodd" d="M91.2612 389.456C90.4529 388.001 89.6041 386.506 88.7554 384.97C80.7932 370.662 73.5182 353.889 69.6382 346.17C61.3527 330.084 53.4715 313.028 46.156 295.406C35.5668 269.863 26.4326 243.107 20.4105 215.987C13.5801 185.27 10.5084 154.19 13.9842 123.958C15.4796 110.095 19.0363 95.6662 24.8968 82.3691C30.7976 68.9911 39.0022 56.8256 49.9956 47.6106C55.6136 42.8818 63.8586 37.951 71.7803 36.981C77.277 36.3343 82.5716 37.5872 86.8153 42.0331C82.7737 37.183 77.3578 35.6068 71.6994 35.9301C63.3736 36.3747 54.5223 40.9418 48.3385 45.5089C36.3347 54.4006 26.9984 66.5257 20.0872 80.0653C13.1355 93.6049 8.60879 108.478 6.22419 122.867C0.0404224 161.586 3.71834 202.286 13.5801 241.813C18.4301 261.173 24.7351 280.25 32.0505 298.64C39.5681 317.514 48.2173 335.621 57.109 352.717C61.8782 361.569 71.5378 382.585 81.3995 397.863C86.9366 406.431 92.7162 413.262 97.6875 416.131C100.355 417.667 102.537 417.222 104.195 416.172C105.367 415.444 107.226 413.827 107.347 410.635C107.468 407.967 105.488 399.924 105.326 399.237L100.395 379.958C98.3342 370.541 96.96 361.124 96.3941 351.666C95.8283 342.209 96.0304 332.711 97.2025 323.132C100.436 295.649 110.863 271.803 127.475 254.221C144.409 236.236 167.73 224.758 196.385 222.494C167.002 223.181 142.671 233.73 124.363 251.109C105.973 268.691 93.8479 293.224 88.917 321.96C87.2195 332.024 86.5324 342.007 86.6941 352.03C86.8558 362.054 87.947 372.036 89.7254 382.06L91.2612 389.456Z" fill="white" fill-opacity="0.15"/>
</g>
<mask id="mask1_0_599" style="mask-type:luminance" maskUnits="userSpaceOnUse" x="58" y="0" width="307" height="443">
<path d="M58.6047 0H364.722V442.281H58.6047V0Z" fill="white"/>
</mask>
<g mask="url(#mask1_0_599)">
<path fill-rule="evenodd" clip-rule="evenodd" d="M68.1432 62.9696L68.5878 64.3034C70.3662 66.0413 73.1145 66.9305 76.0649 67.3347C80.3491 67.8601 85.1587 67.4155 88.3517 67.0517C96.3138 66.203 104.397 64.9097 112.4 63.2121C120.402 61.4742 128.324 59.3725 136.003 56.9071C167.73 46.6008 215.746 21.2999 259.234 14.8736C288.051 10.5894 314.888 14.6311 332.752 39.2045C340.512 49.8342 345.039 62.2421 347.666 75.3372C351.708 95.4648 351.142 117.088 349.687 136.367C348.111 158.798 345.241 181.593 341.159 204.307C338.491 219.262 335.298 234.135 331.54 248.887C322.082 286.03 308.987 322.203 291.244 355.062C283.605 369.329 265.579 396.247 245.007 413.667C231.185 425.387 216.352 433.107 202.812 427.893C195.093 424.902 190.768 418.314 188.141 410.554C183.978 398.066 184.18 382.586 184.059 371.754C183.776 350.737 186.403 317.555 183.452 287.687C181.391 266.711 176.582 247.351 166.235 234.943C175.975 247.675 179.896 266.994 181.149 287.889C182.887 317.798 179.087 350.737 178.562 371.714C178.279 383.111 177.552 399.359 181.472 412.656C184.463 422.72 190.081 431.086 199.821 435.209C215.786 441.999 234.176 434.602 251.11 421.103C273.339 403.441 293.144 375.594 301.591 360.842C320.506 327.377 335.016 290.557 345.241 252.484C349.323 237.449 352.678 222.172 355.386 206.854C359.508 183.573 362.095 160.213 363.469 137.256C364.601 116.805 364.762 93.8885 359.993 72.7101C356.679 57.9579 351.021 44.0546 341.927 32.2933C320.748 5.05231 290.395 0.283138 257.819 6.34566C214.088 14.4694 166.558 42.1146 134.952 53.8354C127.475 56.6242 119.756 59.0492 111.915 61.1105C104.033 63.1717 96.1117 64.8288 88.19 66.0413C85.0779 66.5263 80.3896 67.2134 76.1054 66.8497C73.1954 66.6072 70.4874 65.8797 68.6283 64.2226L68.1432 62.9696Z" fill="white" fill-opacity="0.15"/>
</g>
</svg>
